<svg xmlns="http://www.w3.org/2000/svg" width="32" height="56" viewBox="0 0 32 56" fill="none">
<path d="M27.3252 40.3402C31.7209 32.894 32.0797 21.4092 27.3252 14.9727L20.2832 27.0885L27.3252 40.3402Z" fill="url(#paint0_radial_35939_85305)"/>
<path d="M3.44614 0C11.4562 0 21.801 3.11541 28.4468 14.7683C33.5313 23.6855 32.8069 33.5733 28.503 41.1192C21.8573 52.7791 12.3282 56 3.09451 56H0.20414L0.204142 55.0039C5.93565 55.0039 11.5476 53.4753 16.4282 50.0575C20.5211 47.1953 22.8207 43.9955 23.2708 40.5566C24.0796 34.3328 18.1441 28.0035 18.1441 28.0035C18.1441 28.0035 24.0796 21.6672 23.2708 15.4505C22.8207 12.0116 20.5914 8.7133 16.4282 5.94952C8.60801 0.745448 1.94916 1.00391 0.197109 1.00391L0.197107 0H3.44614ZM26.1471 38.9039C28.9531 35.9221 29.2555 31.4776 29.2555 31.4776C29.2555 31.4776 28.1092 31.4213 27.2864 31.0205C26.112 30.4438 25.3595 29.5296 25.0149 29.0584L23.095 29.4663C25.3525 33.088 25.9994 36.0628 26.1471 38.911V38.9039ZM23.095 26.5337L25.0149 26.9416C25.3525 26.4704 26.112 25.5562 27.2864 24.9795C28.1022 24.5716 29.2555 24.5224 29.2555 24.5224C29.2555 24.5224 28.9531 20.0779 26.1471 17.0961C25.9994 19.9442 25.3595 22.912 23.095 26.5408V26.5337Z" fill="url(#paint1_linear_35939_85305)"/>
<defs>
<radialGradient id="paint0_radial_35939_85305" cx="0" cy="0" r="1" gradientUnits="userSpaceOnUse" gradientTransform="translate(25.5205 41.1692) rotate(-90) scale(24.9402 10.2981)">
<stop stop-color="#3E200E"/>
<stop offset="1" stop-color="#140E20"/>
</radialGradient>
<linearGradient id="paint1_linear_35939_85305" x1="16.0986" y1="0" x2="16.0986" y2="56" gradientUnits="userSpaceOnUse">
<stop stop-color="#FEB701"/>
<stop offset="0.336774" stop-color="#FFC757"/>
<stop offset="0.489492" stop-color="#FDE1A9"/>
<stop offset="0.506828" stop-color="#6E531C"/>
<stop offset="0.575917" stop-color="#9B8455"/>
<stop offset="0.673137" stop-color="#AC7E22"/>
<stop offset="0.883497" stop-color="#573723"/>
<stop offset="0.997119" stop-color="#5B2C15"/>
</linearGradient>
</defs>
</svg>