<svg xmlns="http://www.w3.org/2000/svg" width="32" height="56" viewBox="0 0 32 56" fill="none">
<path d="M4.67484 40.3402C0.279148 32.894 -0.0796855 21.4092 4.67484 14.9727L11.7168 27.0885L4.67484 40.3402Z" fill="url(#paint0_radial_35939_83136)"/>
<path d="M28.5539 0C20.5438 0 10.199 3.11541 3.55323 14.7683C-1.53128 23.6855 -0.806933 33.5733 3.49697 41.1192C10.1427 52.7791 19.6718 56 28.9055 56H31.7959L31.7959 55.0039C26.0644 55.0039 20.4524 53.4753 15.5718 50.0575C11.4789 47.1953 9.17925 43.9955 8.72917 40.5566C7.92043 34.3328 13.8559 28.0035 13.8559 28.0035C13.8559 28.0035 7.92043 21.6672 8.72917 15.4505C9.17925 12.0116 11.4086 8.7133 15.5718 5.94952C23.392 0.745448 30.0508 1.00391 31.8029 1.00391L31.8029 0H28.5539ZM5.85287 38.9039C3.04689 35.9221 2.74449 31.4776 2.74449 31.4776C2.74449 31.4776 3.89079 31.4213 4.7136 31.0205C5.88803 30.4438 6.64051 29.5296 6.98511 29.0584L8.90499 29.4663C6.64754 33.088 6.00055 36.0628 5.85287 38.911V38.9039ZM8.90499 26.5337L6.98511 26.9416C6.64754 26.4704 5.88803 25.5562 4.7136 24.9795C3.89783 24.5716 2.74449 24.5224 2.74449 24.5224C2.74449 24.5224 3.04689 20.0779 5.85287 17.0961C6.00055 19.9442 6.64051 22.912 8.90499 26.5408V26.5337Z" fill="url(#paint1_linear_35939_83136)"/>
<defs>
<radialGradient id="paint0_radial_35939_83136" cx="0" cy="0" r="1" gradientUnits="userSpaceOnUse" gradientTransform="translate(6.4795 41.1692) rotate(-90) scale(24.9402 10.2981)">
<stop stop-color="#3E200E"/>
<stop offset="1" stop-color="#140E20"/>
</radialGradient>
<linearGradient id="paint1_linear_35939_83136" x1="15.9014" y1="0" x2="15.9014" y2="56" gradientUnits="userSpaceOnUse">
<stop stop-color="#FEB701"/>
<stop offset="0.336774" stop-color="#FFC757"/>
<stop offset="0.489492" stop-color="#FDE1A9"/>
<stop offset="0.506828" stop-color="#6E531C"/>
<stop offset="0.575917" stop-color="#9B8455"/>
<stop offset="0.673137" stop-color="#AC7E22"/>
<stop offset="0.883497" stop-color="#573723"/>
<stop offset="0.997119" stop-color="#5B2C15"/>
</linearGradient>
</defs>
</svg>