<svg xmlns:xlink="http://www.w3.org/1999/xlink" xmlns="http://www.w3.org/2000/svg" width="101" height="100" viewBox="0 0 101 100" fill="none">
<path d="M4.33984 4.0561C1.74506 6.24945 0.987849 9.90424 0.933594 11.4575C1.01795 11.2518 1.63444 10.4658 3.4255 8.96711C5.21656 7.46847 7.14165 7.38318 7.88031 7.52786C7.88031 6.94912 8.06308 5.38955 8.79412 3.78125C9.52517 2.17295 11.9163 0.887818 13.0205 0.446289C11.033 0.53767 7.58333 1.31441 4.33984 4.0561Z" fill="#282D43"/>
<path fill-rule="evenodd" clip-rule="evenodd" d="M0.34375 12.47C0.34375 5.58 5.95375 0 12.8538 0H16.3438V1C13.6337 1 10.5838 1.71 9.15375 4.24C8.70375 5.04 8.50375 5.85 8.42375 6.47C8.35375 7 8.37375 7.47 8.42375 8H7.88375C6.10375 8 4.80375 8.45 3.93375 9.22C1.45375 11.42 1.34375 14.62 1.34375 16H0.34375V12.49V12.47ZM1.52375 10.59C1.94375 9.8 2.52375 9.04 3.30375 8.42C4.31375 7.63 5.64375 7.09 7.37375 7C7.37375 6.81 7.39375 6.59 7.43375 6.33C7.52375 5.63 7.75375 4.69 8.28375 3.75C8.82375 2.79 9.67375 1.85 10.9738 1.15C6.13375 1.95 2.31375 5.76 1.52375 10.6V10.59Z" fill="#3D3F52"/>
<mask id="path-3-inside-1_36299_107422" fill="white">
<path d="M0.34375 16H8.34375V84H0.34375V16Z"/>
</mask>
<path d="M1.34375 84V16H-0.65625V84H1.34375Z" fill="#3D3F52" mask="url(#path-3-inside-1_36299_107422)"/>
<path d="M4.33984 95.9439C1.74506 93.7505 0.987849 90.0958 0.933594 88.5425C1.01795 88.7482 1.63444 89.5342 3.4255 91.0329C5.21656 92.5315 7.14165 92.6168 7.88031 92.4721C7.88031 93.0509 8.06308 94.6104 8.79412 96.2187C9.52517 97.827 11.9163 99.1122 13.0205 99.5537C11.033 99.4623 7.58333 98.6856 4.33984 95.9439Z" fill="#282D43"/>
<path fill-rule="evenodd" clip-rule="evenodd" d="M0.34375 87.53C0.34375 94.42 5.95375 100 12.8538 100H16.3438V99C13.6337 99 10.5838 98.29 9.15375 95.76C8.70375 94.96 8.50375 94.15 8.42375 93.53C8.35375 93 8.37375 92.53 8.42375 92H7.88375C6.10375 92 4.80375 91.55 3.93375 90.78C1.45375 88.58 1.34375 85.38 1.34375 84H0.34375V87.51V87.53ZM1.52375 89.41C1.94375 90.2 2.52375 90.96 3.30375 91.58C4.31375 92.37 5.64375 92.91 7.37375 93C7.37375 93.19 7.39375 93.41 7.43375 93.67C7.52375 94.37 7.75375 95.31 8.28375 96.25C8.82375 97.21 9.67375 98.15 10.9738 98.85C6.13375 98.05 2.31375 94.24 1.52375 89.4V89.41Z" fill="#3D3F52"/>
<mask id="path-7-inside-2_36299_107422" fill="white">
<path d="M16.3438 0H84.3438V100H16.3438V0Z"/>
</mask>
<path d="M16.3438 1H84.3438V-1H16.3438V1ZM84.3438 99H16.3438V101H84.3438V99Z" fill="#3D3F52" mask="url(#path-7-inside-2_36299_107422)"/>
<path d="M96.3477 4.0561C98.9424 6.24945 99.6997 9.90424 99.7539 11.4575C99.6695 11.2518 99.0531 10.4658 97.262 8.96711C95.4709 7.46847 93.5458 7.38318 92.8072 7.52786C92.8072 6.94912 92.6244 5.38955 91.8934 3.78125C91.1623 2.17295 88.7712 0.887818 87.667 0.446289C89.6545 0.53767 93.1042 1.31441 96.3477 4.0561Z" fill="#282D43"/>
<path fill-rule="evenodd" clip-rule="evenodd" d="M100.344 12.47C100.344 5.58 94.7337 0 87.8337 0H84.3438V1C87.0538 1 90.1037 1.71 91.5337 4.24C91.9837 5.04 92.1838 5.85 92.2638 6.47C92.3337 7 92.3138 7.47 92.2638 8H92.8038C94.5837 8 95.8837 8.45 96.7538 9.22C99.2338 11.42 99.3438 14.62 99.3438 16H100.344V12.49V12.47ZM99.1638 10.59C98.7438 9.8 98.1637 9.04 97.3837 8.42C96.3737 7.63 95.0437 7.09 93.3137 7C93.3137 6.81 93.2937 6.59 93.2537 6.33C93.1637 5.63 92.9338 4.69 92.4037 3.75C91.8637 2.79 91.0138 1.85 89.7137 1.15C94.5538 1.95 98.3737 5.76 99.1638 10.6V10.59Z" fill="#3D3F52"/>
<mask id="path-11-inside-3_36299_107422" fill="white">
<path d="M100.344 16H92.3438V84H100.344V16Z"/>
</mask>
<path d="M99.3438 84V16H101.344V84H99.3438Z" fill="#3D3F52" mask="url(#path-11-inside-3_36299_107422)"/>
<path d="M96.3477 95.9439C98.9424 93.7505 99.6997 90.0958 99.7539 88.5425C99.6695 88.7482 99.0531 89.5342 97.262 91.0329C95.4709 92.5315 93.5458 92.6168 92.8072 92.4721C92.8072 93.0509 92.6244 94.6104 91.8934 96.2187C91.1623 97.827 88.7712 99.1122 87.667 99.5537C89.6545 99.4623 93.1042 98.6856 96.3477 95.9439Z" fill="#282D43"/>
<path fill-rule="evenodd" clip-rule="evenodd" d="M100.344 87.53C100.344 94.42 94.7337 100 87.8337 100H84.3438V99C87.0538 99 90.1037 98.29 91.5337 95.76C91.9837 94.96 92.1838 94.15 92.2638 93.53C92.3337 93 92.3138 92.53 92.2638 92H92.8038C94.5837 92 95.8837 91.55 96.7538 90.78C99.2338 88.58 99.3438 85.38 99.3438 84H100.344V87.51V87.53ZM99.1638 89.41C98.7438 90.2 98.1637 90.96 97.3837 91.58C96.3737 92.37 95.0437 92.91 93.3137 93C93.3137 93.19 93.2937 93.41 93.2537 93.67C93.1637 94.37 92.9338 95.31 92.4037 96.25C91.8637 97.21 91.0138 98.15 89.7137 98.85C94.5538 98.05 98.3737 94.24 99.1638 89.4V89.41Z" fill="#3D3F52"/>
</svg>