<svg xmlns="http://www.w3.org/2000/svg" xmlns:xlink="http://www.w3.org/1999/xlink">
<symbol xmlns="http://www.w3.org/2000/svg" id="sidebar-bonus-crab" viewBox="0 0 20 21"><path fill-rule="evenodd" clip-rule="evenodd" d="m17.12 6.457.269-.372.027.024c.014.012.023.02.03.029.187.24.44.277.719.226.28-.05.448-.235.469-.5a4.813 4.813 0 0 0-.012-1.053c-.033-.23-.155-.464-.29-.66-.265-.38-.66-.62-1.076-.809a10.704 10.704 0 0 0-4.424-.955c-1.716-.009-3.367.366-4.953 1.009a13.222 13.222 0 0 0-4.414 2.95 9.623 9.623 0 0 0-1.976 2.828C.927 10.408.77 11.708.854 13.043c.056.895.258 1.757.705 2.55.48.848 1.214 1.44 2.034 1.928 1.275.761 2.68.985 4.146.885 1.247-.084 2.452-.372 3.63-.776 1.43-.492 2.808-1.091 4-2.039.893-.71 1.65-1.526 2.06-2.616.162-.433.22-.872.191-1.326a1.632 1.632 0 0 0-.349-.946c-.357-.443-.822-.436-1.137.037-.07.105-.127.22-.183.336-.054.111-.108.222-.175.325-.117.18-.251.363-.42.49-.18.135-.284.065-.322-.16-.054-.316-.265-.45-.578-.361a1.639 1.639 0 0 0-.217.085c-.577.257-1.021.679-1.44 1.134-.066.072-.137.14-.213.21a8.807 8.807 0 0 0-.108.102c-.14-.358-.405-.447-.706-.26a1.31 1.31 0 0 0-.184.145l-.042.037c-.095.084-.128.331-.171.651-.13.959-.349 2.575-2.58 2.459-1.2-.063-1.253-2.215-.916-2.89.314-.627.818-1.286 1.178-1.756.185-.243.333-.435.396-.547.26-.462.787-.707 1.31-.95.338-.156.674-.312.937-.525.051-.042.158-.054.224-.033.24.075.474.165.708.254l.024.01c.457.175.855.021 1.079-.41.078-.15.161-.3.244-.449.095-.172.191-.345.28-.52.091-.178.205-.209.377-.123.081.04.166.076.25.11.06.026.12.05.178.077.355.163.614.128.88-.157a5.572 5.572 0 0 0 .469-.593c.236-.321.47-.645.707-.974Z"/></symbol>
<symbol xmlns="http://www.w3.org/2000/svg" id="sidebar-challenges" viewBox="0 0 20 21"><path d="M10.886 7.418 10 5.303l-.885 2.115-2.285.189 1.737 1.495-.526 2.231 1.96-1.19 1.958 1.19-.526-2.23 1.737-1.496-2.284-.19Z"/><path fill-rule="evenodd" clip-rule="evenodd" d="M16.927 9.252a4.51 4.51 0 0 1 0-1.355c.09-.706.533-1.741.533-1.741s-.97-.589-1.459-1.112a4.532 4.532 0 0 1-.794-1.095c-.332-.615-.56-1.7-.56-1.7s-1.149.079-1.863-.064a4.79 4.79 0 0 1-1.286-.419C10.852 1.462 10 .72 10 .72s-.852.742-1.496 1.046a4.69 4.69 0 0 1-1.286.419c-.705.137-1.839.045-1.839.045s-.244 1.097-.584 1.719c-.253.464-.432.71-.795 1.095-.486.517-1.452 1.093-1.452 1.093s.437 1.048.526 1.76c.065.524.066.83 0 1.354-.088.71-.53 1.755-.53 1.755s.968.579 1.456 1.098c.362.385.541.631.795 1.095.34.623.585 1.72.585 1.72s1.132-.093 1.836.043c.519.1.81.19 1.286.419.626.302 1.441 1.045 1.441 1.045s.89-.738 1.554-1.044a4.94 4.94 0 0 1 1.286-.42c.711-.14 1.856-.057 1.856-.057s.232-1.088.566-1.705a4.68 4.68 0 0 1 .794-1.095c.493-.534 1.47-1.144 1.47-1.144s-.45-1.015-.543-1.709ZM10 13.158a4.58 4.58 0 0 1-4.576-4.584A4.58 4.58 0 0 1 10 3.99a4.58 4.58 0 0 1 4.577 4.584A4.58 4.58 0 0 1 10 13.158Z"/><path d="m4.91 15.939-1.109 3.026h2.145l1.607 1.376 1.403-3.655a4.332 4.332 0 0 0-2.706-.966 4.21 4.21 0 0 0-1.34.219Zm6.137.745 1.377 3.677 1.63-1.395 2.14.02-1.107-3.048a4.211 4.211 0 0 0-1.337-.218c-.999 0-1.938.355-2.703.964Zm-.307-.815.05-.035-.061.002.012.033Z"/></symbol>
<symbol xmlns="http://www.w3.org/2000/svg" id="sidebar-home" viewBox="0 0 20 21"><path d="M18.668 7.346v-1.33h.499V4.684H20v-.671L10 .68 0 4.013v.67h.833v1.333h.51L1.342 7.35h1.03l-.545 8.662h-.485v1.333H1c-.184 0-.167.002-.167.002v1.334H0v1.996l20 .004v-2.003h-.833v-1.333h-.5V16.01h-.485l-.545-8.662 1.03-.003ZM10.005 1.68 17.1 4.017H2.818l7.187-2.337Zm3.332 4.336v.667h-1.999v-.667h1.999Zm-4.664 0v.667H6.674v-.667h1.999Zm-6.664 0h2v.667h-2v-.667Zm2 11.328h-2v-.667h1.999v.667ZM6.49 16.01h-.48s-.002.15-.002.333v1H4.675V16.01h-.484l-.545-8.66h1.03l-.001-1.333h1.332v1.33l1.03.003-.546 8.662Zm2.182 1.333h-2v-.667h2v.667Zm1.998-1v1H9.34v-1c0-.184.003-.353.003-.333h-.487l-.547-8.66 1.03-.003v-1.33h1.332v1.33l1.03.003-.546 8.662h-.48s-.004.15-.004.333Zm2.666 1h-2v-.667h2v.667Zm1.999-1v1h-1.333v-1c0-.184-.003-.333-.003-.333h-.482l-.545-8.662 1.03-.003v-1.33h1.333v1.33l1.028.003-.546 8.662h-.484s.002.15.002.333Zm2.665 1h-1.999v-.667h2v.667Zm-.333-10.661h-1.666v-.667h2v.667h-.334Z"/></symbol>
<symbol xmlns="http://www.w3.org/2000/svg" id="sidebar-collections" viewBox="0 0 20 21"><path fill-rule="evenodd" clip-rule="evenodd" d="m1.103 3.65 9.392-.986c.61-.064 1.158.38 1.222.99l1.51 14.365c.064.61-.38 1.158-.99 1.222l-9.392.987a1.113 1.113 0 0 1-1.222-.99L.113 4.873c-.064-.61.38-1.158.99-1.222Zm6.434 6.086L5.985 7.044l-.83 2.995-3.04.644 2.592 1.715-.326 3.09 2.43-1.935 2.839 1.265-1.09-2.91L10.643 9.6l-3.105.136Z"/><path d="M5.586 1.386h9.444c.613 0 1.112.5 1.111 1.112v14.445c0 .613-.498 1.111-1.111 1.111h-.94c.005-.09.002-.182-.008-.275l-1.51-14.365a1.807 1.807 0 0 0-1.985-1.608l-6.112.643a1.113 1.113 0 0 1 1.11-1.063Z"/><path d="m15.967 18.714.825.131a1.113 1.113 0 0 0 1.272-.924l2.26-14.267a1.113 1.113 0 0 0-.925-1.272l-2.339-.37v14.92c0 .796-.45 1.481-1.093 1.782Z"/></symbol>
<symbol xmlns="http://www.w3.org/2000/svg" id="sidebar-promotions" viewBox="0 0 20 20"><path d="M9.584 9.167v10H2.5v-10h7.084Zm.833 0v10H17.5v-10h-7.083ZM18.334 5H13.75c.163-.116.447-.284.594-.42l.092-.089c1.01-.991.735-2.257-.06-2.996-.794-.738-2.157-.994-3.224-.055A4.397 4.397 0 0 0 10 3.024 4.397 4.397 0 0 0 8.848 1.44C7.782.5 6.419.757 5.624 1.495c-.794.739-1.07 2.005-.06 2.996.03.03.061.06.092.088.147.137.431.305.594.42H1.667v3.334h16.667V5ZM9.167 5c-.993.036-1.974-.531-2.683-1.19a3.527 3.527 0 0 1-.07-.067c-.557-.547-.328-1.138.038-1.478.208-.194.504-.346.829-.346.246 0 .509.087.763.31l.071.066c.71.658 1.09 1.782 1.052 2.705Zm4.35-1.19C12.84 4.438 11.778 5 10.833 5c-.046 0 .045.002 0 0-.038-.923.343-2.047 1.052-2.706l.071-.064c.59-.518 1.225-.305 1.591.035.366.34.596.93.038 1.478a3.663 3.663 0 0 1-.07.067Z"/></symbol>
<symbol xmlns="http://www.w3.org/2000/svg" id="sidebar-sports" viewBox="0 0 20 21"><path d="m12.979 1.368-2.563 2.197v2.933l2.974 2.23 2.53-1.083 1.22-3.355a9.184 9.184 0 0 0-4.161-2.922Zm-.963-.272L10 2.825l-2.017-1.73a9.198 9.198 0 0 1 4.033 0ZM9.583 3.565 7.02 1.368A9.184 9.184 0 0 0 2.86 4.29l1.22 3.355 2.53 1.084 2.973-2.23V3.564ZM10 7.227 7.157 9.36l1.06 3.18h3.566l1.06-3.18L10 7.227Zm7.729-2.117-.976 2.681 2.39 1.594a9.113 9.113 0 0 0-1.415-4.276Zm1.431 5.287L16.206 8.43 13.67 9.516l-1.126 3.38 1.43 2.144h3.71a9.117 9.117 0 0 0 1.477-4.643Zm-2.089 5.476h-3.04l-1.147 2.87a9.182 9.182 0 0 0 4.187-2.87Zm-5.193 3.141 1.403-3.509-1.421-2.132H8.14l-1.422 2.132 1.403 3.509a9.203 9.203 0 0 0 3.757 0Zm-5.91-3.141 1.148 2.87a9.182 9.182 0 0 1-4.188-2.87h3.04Zm.059-.833H2.315A9.118 9.118 0 0 1 .84 10.397L3.793 8.43 6.33 9.516l1.127 3.38-1.43 2.144ZM3.246 7.791.856 9.385a9.113 9.113 0 0 1 1.415-4.276l.975 2.682Z"/></symbol><symbol xmlns="http://www.w3.org/2000/svg" id="sidebar-shop" viewBox="0 0 20 21"><path d="M6.667 10.72h3.32l1.667-6.667H5l1.667 6.667ZM4.144 4.067l1.664 6.653H.833L0 6.553l4.144-2.486Zm11.689 6.653h-4.987l1.665-6.66 4.156 2.493-.834 4.167Zm-10 5a1.667 1.667 0 1 1-3.333 0 1.667 1.667 0 0 1 3.333 0Zm8.334 0a1.667 1.667 0 1 1-3.334 0 1.667 1.667 0 0 1 3.334 0Z"/><path fill-rule="evenodd" clip-rule="evenodd" d="M.833 11.553h15v.834l-.516 1.55.07.116h2.807l1.556-1.167.5.667-1.778 1.333h-2.744a3.333 3.333 0 1 1-6.457 0H7.396a3.333 3.333 0 1 1-6.045-.95l-.517-1.55v-.833Zm9.31 3.334a2.5 2.5 0 1 0 4.715 1.667 2.5 2.5 0 0 0-4.716-1.667Zm-8.334 0a2.5 2.5 0 1 0 4.716 1.667 2.5 2.5 0 0 0-4.716-1.667Z"/></symbol><symbol xmlns="http://www.w3.org/2000/svg" id="sidebar-tournaments" viewBox="0 0 20 21"><path d="M14.247 9.883a.517.517 0 0 1 .005-.012v.013h-.005"/><path fill-rule="evenodd" clip-rule="evenodd" d="M7.688 14.513c0-.222.051-.435.144-.62h.005a4.76 4.76 0 0 1-.39-.093c-.971-.278-1.378-1.884-1.656-2.99C5.509 12.2 3.98 12.2 3.98 12.2v-.926s.926 0 .926-.926c0-.236-.167-.44-.375-.652-.242-.25-.55-.49-.87-.738l-.2-.156c-.43-.337-.86-.694-1.184-1.087-.375-.458-.611-.963-.611-1.532 0-1.537.5-2.259 1.027-2.601a1.76 1.76 0 0 1 .436-.204 1.38 1.38 0 0 1-.07-.435h-.366v-1.39h14.612l.005 1.389h-.37c0 .148-.024.296-.07.435.148.046.296.111.435.204.528.342 1.028 1.064 1.028 2.6 0 .575-.236 1.08-.611 1.533-.324.393-.755.75-1.185 1.087l-.171.134c-.33.258-.65.507-.898.76-.209.213-.375.416-.375.652 0 .926.926.926.926.926v.926s-1.532 0-1.81-1.389l-.01.035c-.276 1.105-.672 2.68-1.629 2.955-.13.037-.259.065-.388.093a1.39 1.39 0 0 1-.625 1.86c.444.968 1.185 1.634 2.23 2h.616l1.157 1.157c0 .639-.002 1.157-.002 1.157H4.45s.003-.518.003-1.157l1.157-1.157h.616c1.041-.366 1.786-1.032 2.23-2a1.382 1.382 0 0 1-.768-1.24Zm6.56-4.63-.001.001a.96.96 0 0 1 0-.001Zm.004-.063-.003.022c.002-.04.002-.095.002-.095v.073Zm1.04-4.564c.13-.333.14-.754.515-.949a.851.851 0 0 1 .328-.101.893.893 0 0 1 .671.148c.361.236.602.773.602 1.828 0 .435-.25.796-.57 1.134-.301.312-.667.598-1.022.875-.113.089-.225.176-.333.263-.417.329-.783.658-1.014.995a1.86 1.86 0 0 0-.217.422V9.82c.052-.539.494-2.33.79-3.527.12-.483.215-.87.25-1.037ZM4.204 4.307c.374.195.38.616.514.95.036.167.132.553.25 1.036.31 1.25.78 3.15.796 3.591a1.843 1.843 0 0 0-.222-.435c-.232-.337-.602-.666-1.014-.995-.1-.08-.202-.16-.306-.24-.366-.284-.743-.577-1.05-.898-.32-.338-.57-.7-.57-1.134 0-1.06.242-1.592.603-1.828a.893.893 0 0 1 .67-.148.85.85 0 0 1 .33.101Zm5.797.33-.819 1.956-2.113.174 1.607 1.384-.487 2.064L10 9.114l1.813 1.1-.487-2.063 1.607-1.384-2.114-.174L10 4.637Z"/></symbol>
<symbol xmlns="http://www.w3.org/2000/svg" id="sidebar-virtual-sports" viewBox="0 0 20 21"><path fill-rule="evenodd" clip-rule="evenodd" d="M16.876 5.04c.17.05.624.833.624.833s2.472 6.217 2.5 8.95a.938.938 0 0 1-.393.773l-2.107 1.11-2.382-2.49a2.5 2.5 0 1 0-3.392-.625H8.274a2.5 2.5 0 1 0-3.381.632L2.5 16.706l-2.107-1.11A.938.938 0 0 1 0 14.823c.028-2.733 2.083-8.95 2.5-9.783.417-.833.833-.833.833-.833v-.834h2.5v.834h.513c.19 0 .354.127.403.31l.694 2.606c.08.312.36.529.682.529h3.75a.702.702 0 0 0 .681-.529l.676-1.812a.417.417 0 0 1 .39-.271h.545V3.373h2.71V5.04ZM5 5.873h-.833v.834h-.834v.833h.834v.833H5V7.54h.833v-.833H5v-.834Zm10 0h-.833v.834H15v-.834Zm1.667 0h-.834v.834h.834v-.834Zm-.834 1.667h.834v.833h-.834V7.54Zm-.833 0h-.833v.833H15V7.54Z"/><path d="M8.634 6.707a.417.417 0 0 1-.396-.285L7.5 4.207l5 .833-.718 1.436a.416.416 0 0 1-.373.23H8.634Zm-.717 5.416a1.667 1.667 0 1 1-3.334 0 1.667 1.667 0 0 1 3.334 0Zm7.5 0a1.667 1.667 0 1 1-3.334 0 1.667 1.667 0 0 1 3.334 0Z"/></symbol><symbol xmlns="http://www.w3.org/2000/svg" id="sidebar-vip-levels" viewBox="0 0 20 21"><path d="M5 7.9H0l8.571 9.286L5 7.9Zm5 10.833L14.167 7.9H5.833L10 18.733ZM15 7.9l-3.571 9.286L20 7.9h-5Zm.833-5.833h-2.5l1.667 5h5l-4.167-5Zm-8.333 0h5l1.667 5H5.833l1.667-5Zm-.833 0h-2.5L0 7.067h5l1.667-5Z"/></symbol>
<symbol xmlns="http://www.w3.org/2000/svg" xmlns:xlink="http://www.w3.org/1999/xlink" id="jackpots" width="20px" height="20px" viewBox="0 0 20 20" version="1.1">
<g id="surface1">
<path style=" stroke:none;fill-rule:nonzero;fill:rgb(0%,0%,0%);fill-opacity:1;" d="M 7.835938 7.757812 L 5.085938 10.507812 C 4.324219 11.265625 4.324219 12.496094 5.085938 13.257812 C 5.84375 14.015625 7.074219 14.015625 7.835938 13.257812 C 8.59375 14.015625 9.824219 14.019531 10.585938 13.257812 C 11.34375 12.5 11.34375 11.269531 10.585938 10.507812 L 7.832031 7.757812 Z M 7.835938 7.0625 L 10.585938 4.3125 C 11.34375 3.550781 11.34375 2.320312 10.582031 1.5625 C 9.824219 0.804688 8.589844 0.804688 7.832031 1.566406 C 7.066406 0.84375 5.867188 0.859375 5.121094 1.601562 C 4.375 2.347656 4.359375 3.550781 5.082031 4.316406 L 7.832031 7.0625 Z M 13.65625 7.4375 C 14.019531 7.074219 14.226562 6.578125 14.226562 6.0625 C 14.226562 5.546875 14.019531 5.054688 13.65625 4.6875 C 12.894531 3.929688 11.664062 3.929688 10.90625 4.6875 L 8.15625 7.4375 L 10.90625 10.1875 C 11.394531 10.703125 12.121094 10.914062 12.808594 10.734375 C 13.492188 10.558594 14.027344 10.023438 14.203125 9.335938 C 14.378906 8.652344 14.171875 7.925781 13.65625 7.4375 Z M 4.710938 4.6875 C 3.949219 3.929688 2.71875 3.929688 1.960938 4.6875 C 1.199219 5.449219 1.199219 6.679688 1.960938 7.4375 C 1.199219 8.199219 1.199219 9.429688 1.957031 10.1875 C 2.71875 10.949219 3.949219 10.949219 4.707031 10.1875 L 7.460938 7.4375 Z M 3.226562 11.351562 C 2.121094 12.691406 1.390625 14.957031 1.390625 16.960938 L 1.878906 16.960938 C 2.148438 16.960938 2.367188 16.976562 2.367188 16.960938 C 2.367188 15.265625 2.960938 13.273438 3.867188 12.109375 C 3.84375 11.839844 3.859375 11.5625 3.914062 11.296875 C 3.6875 11.339844 3.457031 11.359375 3.226562 11.351562 Z M 3.226562 11.351562 "/>
</g>
</symbol>
<simbol xmlns:xlink="http://www.w3.org/1999/xlink" xmlns="http://www.w3.org/2000/svg" id="live-casino" viewBox="0 0 20 21" width="20" height="21"><path fill-rule="evenodd" clip-rule="evenodd" d="M4.5 1.193c-.645 0-1.167.523-1.167 1.167v16c0 .644.522 1.167 1.167 1.167h11c.644 0 1.166-.523 1.166-1.167v-16c0-.644-.522-1.167-1.166-1.167h-11Zm8.272 8.111c.356.319.58.74.633 1.194a1.76 1.76 0 0 1-.095.787 1.88 1.88 0 0 1-.434.683 2.09 2.09 0 0 1-.7.464 2.246 2.246 0 0 1-1.545.053c.049.378.194.74.425 1.055l.045.064a.17.17 0 0 1 .01.183.186.186 0 0 1-.072.07.207.207 0 0 1-.1.025H9.06a.207.207 0 0 1-.1-.026.186.186 0 0 1-.072-.069.17.17 0 0 1 .01-.183l.045-.064a2.28 2.28 0 0 0 .424-1.055c-.33.108-.685.138-1.032.087a2.182 2.182 0 0 1-.95-.38 1.94 1.94 0 0 1-.632-.753 1.767 1.767 0 0 1-.16-.939c.054-.453.278-.875.634-1.193l2.634-2.415a.21.21 0 0 1 .276 0l2.634 2.412Zm1.811-6.027h-2.917v-.834h3.75V7.36h-.833V3.277ZM5.416 13.36v4.083h2.917v.834h-3.75V13.36h.833Z"/></simbol></svg>